<svg width="44" height="41" viewBox="0 0 44 41" fill="none" xmlns="http://www.w3.org/2000/svg">
<g id="Logo">
<g id="Mark">
<path d="M18.7305 35.9769C18.9737 35.3508 19.0897 34.6826 19.0716 34.0112C19.1087 32.1505 19.606 30.3279 20.5191 28.7062C21.43 27.0872 22.7289 25.72 24.2991 24.7274C24.8805 24.4156 25.3926 23.989 25.8044 23.4735C26.2162 22.9581 26.5191 22.3644 26.6948 21.7285C26.8706 21.0926 26.9155 20.4276 26.8268 19.7739C26.7382 19.1201 26.5178 18.4911 26.1791 17.9249C25.7266 17.1687 25.0753 16.5487 24.2991 16.1362C23.8541 15.8274 23.4266 15.4949 23.0191 15.1387L21.9978 14.1387C20.1265 12.1714 19.0771 9.56379 19.0641 6.84868C19.0834 6.17714 18.9681 5.50853 18.7248 4.88229C18.4816 4.25605 18.1154 3.68486 17.6478 3.20243C17.1824 2.72054 16.6246 2.33737 16.0078 2.07579C15.391 1.8142 14.7278 1.67957 14.0578 1.67993C13.3882 1.68088 12.7256 1.8161 12.1092 2.07761C11.4928 2.33912 10.9351 2.72161 10.4691 3.20243C10.0024 3.68571 9.63672 4.25722 9.39354 4.88352C9.15036 5.50982 9.03453 6.17833 9.05284 6.84993C9.06376 7.72173 9.30388 8.57531 9.74909 9.32493C10.1928 10.0733 10.8262 10.6912 11.5853 11.1162C14.6591 13.0612 16.7978 16.7799 16.7978 20.4374C16.7902 23.1289 15.7609 25.7172 13.9178 27.6787L11.5928 29.7437C10.8341 30.1674 10.2003 30.7849 9.75534 31.5349C9.30909 32.2837 9.07034 33.1387 9.05909 34.0112C9.03997 34.6827 9.15542 35.3512 9.39865 35.9775C9.64188 36.6037 10.008 37.1749 10.4753 37.6574C10.9409 38.1392 11.4987 38.5223 12.1155 38.7839C12.7322 39.0455 13.3954 39.1801 14.0653 39.1799C14.7351 39.1792 15.398 39.044 16.0146 38.7825C16.6313 38.521 17.1892 38.1384 17.6553 37.6574C18.1218 37.1743 18.4874 36.6029 18.7305 35.9769Z" fill="#6366F1"/>
<path d="M25.5203 9.62993C24.9691 8.80243 24.6753 7.82868 24.6753 6.83368C24.6762 5.50084 25.2042 4.22244 26.1441 3.27743C26.9613 2.45523 28.0392 1.94306 29.1929 1.82879C30.3465 1.71453 31.5039 2.00528 32.4666 2.65118C33.2912 3.20481 33.9332 3.99038 34.3116 4.90868C34.69 5.82803 34.7888 6.83858 34.5956 7.81381C34.4023 8.78903 33.9257 9.68558 33.2253 10.3912C32.5271 11.0948 31.635 11.5745 30.663 11.7688C29.6909 11.9632 28.683 11.8635 27.7678 11.4824C26.8518 11.101 26.0696 10.4563 25.5203 9.62993Z" fill="#6366F1"/>
<path d="M26.9016 29.8274C27.7253 29.2749 28.6941 28.9799 29.6841 28.9799V28.9774C30.3422 28.9782 30.9937 29.1089 31.6011 29.362C32.2086 29.6152 32.7601 29.9857 33.2241 30.4524C34.044 31.2773 34.554 32.3599 34.6679 33.5174C34.7818 34.6748 34.4925 35.8361 33.8491 36.8049C33.2998 37.6324 32.5171 38.278 31.6003 38.6599C30.6852 39.041 29.6773 39.1407 28.7052 38.9463C27.7332 38.752 26.8411 38.2723 26.1428 37.5687C25.4422 36.863 24.9654 35.9662 24.7722 34.9907C24.579 34.0152 24.6779 33.0044 25.0566 32.0849C25.435 31.1667 26.0771 30.3811 26.9016 29.8274Z" fill="#6366F1"/>
<path d="M41.6553 17.6274C42.2051 18.4546 42.4989 19.4267 42.4991 20.4214C42.4982 21.7545 41.9703 23.0333 41.0303 23.9787C40.5663 24.4452 40.0147 24.8157 39.4073 25.0688C38.7998 25.3219 38.1484 25.4527 37.4903 25.4537C36.4993 25.4537 35.5306 25.1587 34.7078 24.6062C33.8833 24.0526 33.2412 23.267 32.8628 22.3487C32.4841 21.4292 32.3852 20.4184 32.5784 19.4429C32.7717 18.4674 33.2485 17.5706 33.9491 16.8649C34.6474 16.161 35.5397 15.6812 36.5121 15.4869C37.4844 15.2925 38.4925 15.3924 39.4078 15.7737C40.324 16.1555 41.1062 16.8006 41.6553 17.6274Z" fill="#6366F1"/>
<path d="M3.47533 16.2387C4.29908 15.6862 5.26658 15.3912 6.25783 15.3912C6.91576 15.3926 7.56696 15.5237 8.17418 15.777C8.78139 16.0303 9.33271 16.4008 9.79658 16.8674C10.6161 17.692 11.1258 18.7742 11.2397 19.9312C11.3536 21.0881 11.0646 22.2489 10.4216 23.2174C9.87241 24.0442 9.09021 24.6893 8.17408 25.0712C7.25863 25.4504 6.25116 25.5491 5.27951 25.3548C4.30786 25.1605 3.41582 24.682 2.71658 23.9799C2.01621 23.2743 1.53957 22.3778 1.34634 21.4026C1.15312 20.4273 1.25191 19.4168 1.63033 18.4974C2.00857 17.5787 2.6506 16.7927 3.47533 16.2387Z" fill="#6366F1"/>
</g>
</g>
</svg>
